<?xml version="1.0" encoding="utf-8"?>
<!-- Generator: Adobe Illustrator 22.1.0, SVG Export Plug-In . SVG Version: 6.00 Build 0)  -->
<svg version="1.1" id="Layer_1" xmlns="http://www.w3.org/2000/svg" xmlns:xlink="http://www.w3.org/1999/xlink" x="0px" y="0px"
	 viewBox="0 0 512 512" style="enable-background:new 0 0 512 512;" xml:space="preserve">
<g>
	<title>codeigniter</title>
	<g>
		<path d="M211.2,480.8c-28.9-12.8-48.5-40.2-51-71.7c1.7-32.4,18.8-62,46-79.6c-4.5,10.9-3.4,23.3,2.8,33.2
			c7,9.9,19.2,14.6,31.1,12.2c16.9-4.8,26.8-22.3,22-39.3c-1.7-5.9-5-11.3-9.7-15.3c-19.2-15.6-28.8-40-25.4-64.5
			c3.3-13,10.5-24.6,20.6-33.5c-7.6,20.3,13.8,40.2,28.2,50.1c25.5,15.2,50,32.1,73.5,50.3c25.7,20.3,39.7,51.9,37.5,84.4
			c-5.8,34.5-30.2,63-63.4,73.7c66.5-14.8,135.1-67.7,136.4-142.7c-1.3-60-37.1-113.8-91.8-138.4h-2.4c1.2,2.9,1.7,6.1,1.7,9.3
			c0.2-2.1,0.2-4.2,0-6.2c0.3,2.5,0.3,4.9,0,7.3c-4.2,17.1-21.4,27.5-38.5,23.4c-6.8-1.7-12.9-5.6-17.3-11c-22-28.1,0-60.1,3.7-91.1
			c2.3-39.5-15.8-77.3-47.9-100.5c16,26.7-5.4,61.9-20.9,81.9s-38,34.9-56.4,52.3c-19.8,18.4-37.9,38.6-54.1,60.2
			c-35.2,42.9-48.9,99.5-37.5,153.8c15.7,52.3,59.2,91.6,112.8,101.8h0.3L211.2,480.8z"/>
	</g>
</g>
</svg>
