<?xml version="1.0" standalone="no"?>
<!DOCTYPE svg PUBLIC "-//W3C//DTD SVG 20010904//EN"
 "http://www.w3.org/TR/2001/REC-SVG-20010904/DTD/svg10.dtd">
<svg version="1.0" xmlns="http://www.w3.org/2000/svg"
 width="4096.000000pt" height="4096.000000pt" viewBox="0 0 4096.000000 4096.000000"
 preserveAspectRatio="xMidYMid meet">

<g transform="translate(0.000000,4096.000000) scale(0.100000,-0.100000)"
fill="#000000" stroke="none">
<path d="M13225 29234 c-22 -2 -112 -8 -200 -14 -388 -26 -1469 -110 -2765
-216 -2327 -189 -2237 -180 -2352 -224 -35 -13 -79 -41 -111 -70 -151 -138
-153 -364 -8 -728 35 -87 248 -561 474 -1052 728 -1584 1121 -2437 1742 -3780
103 -223 284 -614 402 -870 295 -638 594 -1283 929 -2007 149 -321 221 -477
438 -945 51 -112 178 -385 281 -608 103 -223 243 -524 310 -670 67 -146 180
-389 250 -540 70 -151 208 -450 307 -665 216 -468 246 -527 319 -625 140 -188
317 -309 545 -372 68 -19 105 -22 269 -22 236 0 167 -15 1325 280 385 98 1329
341 1895 489 1311 341 1806 470 2185 570 173 46 318 80 322 76 4 -3 154 -271
334 -596 1505 -2718 2367 -4225 2580 -4512 93 -126 267 -292 349 -335 125 -64
165 -73 315 -73 301 1 436 44 3360 1088 519 186 1024 366 1555 557 105 38 309
111 455 163 424 152 736 265 1185 427 231 84 456 165 500 180 44 15 154 55
245 88 91 33 346 126 567 206 642 233 1078 393 1170 431 287 119 379 199 377
328 -1 82 -55 183 -216 402 -383 524 -1702 2298 -2716 3652 -183 245 -332 446
-330 448 2 1 89 25 193 53 482 128 1504 399 2020 537 193 51 539 143 770 205
661 176 699 189 756 279 56 87 32 167 -97 321 -145 173 -510 624 -1729 2140
-571 710 -839 1042 -1069 1325 -149 184 -324 363 -411 420 -122 80 -248 112
-379 95 -156 -20 -344 -50 -1666 -271 -2449 -408 -2219 -366 -2350 -431 -99
-50 -145 -101 -155 -173 -13 -80 15 -139 170 -359 78 -111 667 -945 1309
-1855 642 -909 1166 -1654 1164 -1656 -2 -1 -109 -27 -238 -58 -129 -31 -442
-106 -695 -167 -470 -112 -928 -222 -1665 -398 -228 -55 -604 -145 -835 -200
-231 -56 -591 -142 -800 -192 -209 -50 -567 -136 -795 -190 -228 -55 -604
-145 -835 -200 -544 -130 -1125 -270 -1544 -371 -184 -44 -337 -76 -341 -72
-4 4 -256 424 -560 933 -304 509 -868 1452 -1253 2095 -970 1621 -1974 3299
-2800 4680 -1749 2923 -1656 2772 -1772 2891 -67 69 -151 116 -247 140 -61 15
-345 27 -433 18z m54 -725 c18 -6 38 -24 47 -41 9 -16 95 -168 193 -336 98
-169 212 -365 253 -437 94 -161 401 -691 710 -1225 129 -223 270 -466 313
-540 43 -74 209 -360 368 -635 159 -275 387 -669 507 -875 119 -206 349 -602
510 -880 161 -278 465 -802 675 -1165 210 -363 472 -815 582 -1005 110 -190
431 -743 713 -1230 440 -760 856 -1476 991 -1711 69 -117 73 -201 12 -232 -15
-8 -163 -47 -328 -87 -385 -91 -1037 -247 -1515 -361 -206 -49 -553 -132 -770
-184 -2356 -563 -2206 -528 -2285 -523 -41 2 -52 7 -62 28 -7 14 -120 250
-252 525 -234 489 -526 1096 -1146 2375 -169 349 -410 847 -535 1105 -252 521
-674 1391 -1288 2655 -222 459 -520 1074 -662 1365 -141 292 -517 1065 -835
1719 -515 1058 -579 1196 -583 1245 -6 82 1 86 183 100 83 7 533 46 1000 87
468 41 951 83 1075 94 1322 116 1840 161 1920 169 138 12 173 12 209 0z
m16436 -4167 c60 -31 88 -59 198 -202 149 -194 782 -1001 1825 -2323 212 -268
322 -416 322 -431 0 -35 -34 -71 -90 -95 -28 -12 -207 -60 -398 -106 -312 -75
-1630 -400 -2372 -584 -157 -39 -295 -73 -306 -76 -18 -4 -40 21 -136 153
-151 207 -576 789 -1453 1992 -395 542 -729 1006 -743 1032 -31 59 -24 94 21
113 18 7 142 31 277 54 383 65 2603 467 2710 491 44 10 106 2 145 -18z m-1048
-4822 c32 -19 56 -49 173 -217 95 -137 559 -774 1442 -1981 995 -1360 1086
-1486 1104 -1529 38 -89 -1 -124 -216 -199 -181 -62 -2965 -1007 -3095 -1049
-38 -13 -209 -71 -380 -128 -433 -147 -1505 -510 -1840 -624 -154 -52 -390
-132 -525 -178 -135 -46 -432 -147 -660 -225 -228 -78 -498 -170 -600 -205
-102 -35 -239 -82 -304 -105 -129 -46 -161 -48 -232 -14 -52 25 -129 103 -191
195 -98 145 -753 1256 -1528 2594 -93 160 -248 427 -345 595 -97 168 -246 424
-330 570 -84 146 -184 318 -222 383 -39 65 -68 120 -66 123 4 4 179 50 863
228 862 224 1150 299 1505 391 206 54 544 142 750 195 206 54 539 141 740 193
700 182 1227 319 1545 402 176 46 489 127 695 180 206 54 483 126 615 161 132
34 380 99 550 143 171 44 337 89 370 100 79 26 141 26 182 1z"/>
</g>
</svg>
